<!-- Generated by IcoMoon.io -->
<svg version="1.1" xmlns="http://www.w3.org/2000/svg" width="26" height="32" viewBox="0 0 26 32">
<title>fire</title>
<path fill="#ff6b08" d="M20.635 13.26c-0.218-0.493-0.52-0.979-0.96-1.54-1.111-1.408-1.449-4.548-1.453-4.578-0.015-0.151-0.12-0.275-0.26-0.32-0.143-0.045-0.297-0.004-0.399 0.109-1.325 1.495-0.768 3.802-0.467 4.725 0.083 0.252 0.173 0.55 0.237 0.851 0.489 2.436-0.456 3.539-0.678 3.761-0.215 0.060-0.361 0.030-0.497-0.117-0.467-0.516-0.621-2.206-0.403-4.408 0.045-0.448 0.034-0.851-0.030-1.227-0.46-2.707-2.149-4.443-2.579-5.052-1.182-1.762-1.303-4.695-1.306-4.721-0.004-0.139-0.083-0.264-0.207-0.324-0.12-0.060-0.267-0.053-0.38 0.026-1.973 1.352-1.803 4.608-1.528 6.426 0.064 0.422 0.188 0.851 0.403 1.393 0.764 1.939-0.151 4.442-0.158 4.465s-0.015 0.041-0.019 0.064c-0.117 0.617-0.312 0.986-0.531 0.986-0.023 0-0.045-0.004-0.072-0.011-0.267-0.056-0.407-0.343-0.41-0.591-0.015-3.211-3.211-4.292-3.245-4.303-0.143-0.045-0.301-0.004-0.399 0.113-0.102 0.117-0.12 0.279-0.053 0.414 0.038 0.079 0.158 0.425 0.075 1.649-0.072 1.099-0.271 2.187-0.591 3.23-0.76 2.5-0.64 4.868-0.632 4.981 0.585 6.412 9.729 7.535 15.157 3.923 0.595-0.395 1.080-0.847 1.438-1.344 2.003-2.786 0.825-6.569-0.053-8.58zM6.725 19.386c0.011 0.207-0.147 0.384-0.354 0.395h-0.023c-0.2 0-0.365-0.154-0.376-0.354-0.034-0.55-0.026-1.126 0.015-1.751 0.015-0.207 0.196-0.361 0.403-0.35 0.207 0.015 0.365 0.196 0.35 0.403-0.041 0.595-0.049 1.137-0.015 1.657zM6.909 16.050c-0.023 0.192-0.184 0.331-0.373 0.331-0.015 0-0.030 0-0.049-0.004-0.203-0.026-0.35-0.211-0.328-0.418l0.181-1.453c0.026-0.203 0.211-0.35 0.422-0.328 0.207 0.026 0.354 0.215 0.328 0.422l-0.181 1.449z"></path>
<path fill="#ff6b08" d="M18.088 5.527c-0.205-0.032-0.346-0.224-0.314-0.429 0.024-0.153 0.16-0.936 0.529-1.33 0.142-0.152 0.38-0.16 0.532-0.017s0.159 0.38 0.017 0.532c-0.156 0.167-0.289 0.644-0.334 0.929-0.032 0.203-0.221 0.346-0.43 0.314z"></path>
<path fill="#ff6b08" d="M4.364 7.402c-0.072-0.28-0.251-0.742-0.423-0.892-0.156-0.137-0.172-0.375-0.035-0.531s0.374-0.173 0.531-0.035c0.406 0.356 0.618 1.122 0.656 1.272 0.051 0.201-0.070 0.406-0.271 0.458-0.206 0.052-0.407-0.073-0.458-0.271z"></path>
</svg>
