<svg xmlns="http://www.w3.org/2000/svg"  width="32pt" height="32pt" viewBox="0 0 32 32" version="1.1">
<defs>
<radialGradient id="radial0" gradientUnits="userSpaceOnUse" cx="104.957123" cy="447.447433" fx="104.957123" fy="447.447433" r="564.64589" gradientTransform="matrix(0.0625,0,0,0.0625,0.000011875,0)">
<stop offset="0" style="stop-color:rgb(98.039216%,88.235294%,0%);stop-opacity:1;"/>
<stop offset="0.0544" style="stop-color:rgb(98.039216%,86.27451%,1.568627%);stop-opacity:1;"/>
<stop offset="0.1167" style="stop-color:rgb(98.431373%,80.784314%,5.490196%);stop-opacity:1;"/>
<stop offset="0.1829" style="stop-color:rgb(98.823529%,71.764706%,12.54902%);stop-opacity:1;"/>
<stop offset="0.2514" style="stop-color:rgb(99.607843%,59.607843%,21.960784%);stop-opacity:1;"/>
<stop offset="0.3054" style="stop-color:rgb(100%,47.45098%,31.372549%);stop-opacity:1;"/>
<stop offset="0.4922" style="stop-color:rgb(100%,10.980392%,45.490196%);stop-opacity:1;"/>
<stop offset="1" style="stop-color:rgb(42.352941%,10.980392%,81.960784%);stop-opacity:1;"/>
</radialGradient>
<linearGradient id="linear0" gradientUnits="userSpaceOnUse" x1="196.372654" y1="222.459678" x2="-671.015954" y2="-265.446414" gradientTransform="matrix(0.0625,0,0,0.0625,0.000011875,0)">
<stop offset="0" style="stop-color:rgb(63.137255%,70.980392%,84.705882%);stop-opacity:0;"/>
<stop offset="0.3094" style="stop-color:rgb(56.470588%,63.529412%,74.117647%);stop-opacity:0.309804;"/>
<stop offset="0.7554" style="stop-color:rgb(48.627451%,54.509804%,61.176471%);stop-opacity:0.756863;"/>
<stop offset="1" style="stop-color:rgb(45.490196%,50.980392%,56.470588%);stop-opacity:1;"/>
</linearGradient>
<linearGradient id="linear1" gradientUnits="userSpaceOnUse" x1="256.0003" y1="451.966086" x2="256.0003" y2="531.77397" gradientTransform="matrix(0.0625,0,0,0.0625,0.000011875,0)">
<stop offset="0" style="stop-color:rgb(98.039216%,88.235294%,0%);stop-opacity:0;"/>
<stop offset="0.3068" style="stop-color:rgb(98.823529%,65.882353%,0%);stop-opacity:0.305882;"/>
<stop offset="0.6275" style="stop-color:rgb(99.607843%,45.098039%,0%);stop-opacity:0.627451;"/>
<stop offset="0.8685" style="stop-color:rgb(100%,32.156863%,0%);stop-opacity:0.866667;"/>
<stop offset="1" style="stop-color:rgb(100%,27.058824%,0%);stop-opacity:1;"/>
</linearGradient>
<linearGradient id="linear2" gradientUnits="userSpaceOnUse" x1="226.872407" y1="226.147987" x2="100.160685" y2="99.436165" gradientTransform="matrix(0.0625,0,0,0.0625,0.000011875,0)">
<stop offset="0" style="stop-color:rgb(51.372549%,22.745098%,70.588235%);stop-opacity:0;"/>
<stop offset="1" style="stop-color:rgb(51.372549%,22.745098%,70.588235%);stop-opacity:1;"/>
</linearGradient>
<linearGradient id="linear3" gradientUnits="userSpaceOnUse" x1="350.899541" y1="468.287448" x2="287.655567" y2="170.137573" gradientTransform="matrix(0.0625,0,0,0.0625,0.000011875,0)">
<stop offset="0" style="stop-color:rgb(51.372549%,22.745098%,70.588235%);stop-opacity:0;"/>
<stop offset="1" style="stop-color:rgb(51.372549%,22.745098%,70.588235%);stop-opacity:1;"/>
</linearGradient>
<linearGradient id="linear4" gradientUnits="userSpaceOnUse" x1="374.965057" y1="374.964967" x2="120.941067" y2="120.940877" gradientTransform="matrix(0.0625,0,0,0.0625,0.000011875,0)">
<stop offset="0" style="stop-color:rgb(51.372549%,22.745098%,70.588235%);stop-opacity:0;"/>
<stop offset="1" style="stop-color:rgb(51.372549%,22.745098%,70.588235%);stop-opacity:1;"/>
</linearGradient>
<linearGradient id="linear5" gradientUnits="userSpaceOnUse" x1="393.806665" y1="221.263104" x2="309.805801" y2="137.26234" gradientTransform="matrix(0.0625,0,0,0.0625,0.000011875,0)">
<stop offset="0" style="stop-color:rgb(51.372549%,22.745098%,70.588235%);stop-opacity:0;"/>
<stop offset="1" style="stop-color:rgb(51.372549%,22.745098%,70.588235%);stop-opacity:1;"/>
</linearGradient>
<linearGradient id="linear6" gradientUnits="userSpaceOnUse" x1="357.658245" y1="155.049529" x2="150.542611" y2="362.165163" gradientTransform="matrix(0.0625,0,0,0.0625,0.000011875,0)">
<stop offset="0" style="stop-color:rgb(51.372549%,22.745098%,70.588235%);stop-opacity:1;"/>
<stop offset="0.0922" style="stop-color:rgb(61.176471%,20.392157%,58.431373%);stop-opacity:1;"/>
<stop offset="0.2927" style="stop-color:rgb(86.27451%,14.509804%,27.45098%);stop-opacity:1;"/>
<stop offset="0.392" style="stop-color:rgb(99.215686%,11.372549%,11.372549%);stop-opacity:1;"/>
<stop offset="0.5589" style="stop-color:rgb(98.823529%,40.784314%,19.215686%);stop-opacity:1;"/>
<stop offset="0.6887" style="stop-color:rgb(98.823529%,60.784314%,25.098039%);stop-opacity:1;"/>
<stop offset="0.7521" style="stop-color:rgb(98.823529%,68.627451%,27.058824%);stop-opacity:1;"/>
<stop offset="0.7806" style="stop-color:rgb(99.215686%,71.764706%,31.372549%);stop-opacity:1;"/>
<stop offset="0.8656" style="stop-color:rgb(99.607843%,79.607843%,41.568627%);stop-opacity:1;"/>
<stop offset="0.9415" style="stop-color:rgb(100%,84.705882%,47.843137%);stop-opacity:1;"/>
<stop offset="1" style="stop-color:rgb(100%,86.27451%,50.196078%);stop-opacity:1;"/>
</linearGradient>
</defs>
<g id="surface1">
<path style=" stroke:none;fill-rule:nonzero;fill:url(#radial0);" d="M 31.453125 5.722656 C 31.160156 2.996094 29.003906 0.839844 26.277344 0.546875 C 19.433594 -0.183594 12.566406 -0.183594 5.722656 0.546875 C 2.996094 0.839844 0.839844 2.996094 0.546875 5.722656 C -0.183594 12.566406 -0.183594 19.433594 0.546875 26.277344 C 0.839844 29.003906 2.996094 31.160156 5.722656 31.453125 C 12.566406 32.183594 19.433594 32.183594 26.277344 31.453125 C 29.003906 31.160156 31.160156 29.003906 31.453125 26.277344 C 32.183594 19.433594 32.183594 12.566406 31.453125 5.722656 Z M 31.453125 5.722656 "/>
<path style=" stroke:none;fill-rule:nonzero;fill:url(#linear0);" d="M 29.710938 6.882812 C 29.453125 4.460938 27.539062 2.546875 25.117188 2.289062 C 19.046875 1.640625 12.953125 1.640625 6.882812 2.289062 C 4.460938 2.546875 2.546875 4.460938 2.289062 6.882812 C 1.640625 12.953125 1.640625 19.046875 2.289062 25.117188 C 2.546875 27.539062 4.460938 29.453125 6.882812 29.710938 C 12.953125 30.359375 19.046875 30.359375 25.117188 29.710938 C 27.539062 29.453125 29.453125 27.539062 29.710938 25.117188 C 30.359375 19.046875 30.359375 12.953125 29.710938 6.882812 Z M 29.710938 6.882812 "/>
<path style=" stroke:none;fill-rule:nonzero;fill:url(#linear1);" d="M 0.480469 25.613281 C 0.5 25.832031 0.523438 26.054688 0.546875 26.277344 C 0.839844 29.003906 2.996094 31.160156 5.722656 31.453125 C 12.566406 32.183594 19.433594 32.183594 26.277344 31.453125 C 29.003906 31.160156 31.160156 29.003906 31.453125 26.277344 C 31.476562 26.054688 31.5 25.832031 31.519531 25.613281 Z M 0.480469 25.613281 "/>
<path style=" stroke:none;fill-rule:nonzero;fill:url(#linear2);" d="M 31.453125 26.277344 C 31.84375 22.597656 32.027344 18.914062 31.996094 15.230469 L 24.683594 7.917969 C 23.769531 6.875 22.433594 6.222656 20.863281 6.167969 C 17.640625 6.050781 14.40625 6.058594 11.179688 6.167969 C 8.5 6.261719 6.625 8.0625 6.144531 10.707031 C 6.0625 11.175781 6.011719 11.648438 5.941406 12.117188 L 5.941406 19.878906 C 5.980469 20.128906 6.035156 20.378906 6.050781 20.632812 C 6.160156 22.242188 6.820312 23.621094 7.878906 24.554688 L 15.324219 31.996094 C 18.976562 32.023438 22.628906 31.839844 26.277344 31.453125 C 29.003906 31.160156 31.160156 29.003906 31.453125 26.277344 Z M 31.453125 26.277344 "/>
<path style=" stroke:none;fill-rule:nonzero;fill:url(#linear3);" d="M 31.453125 26.277344 C 31.160156 29.003906 29.003906 31.160156 26.277344 31.453125 C 22.628906 31.839844 18.976562 32.023438 15.324219 31.996094 L 7.890625 24.566406 C 8.753906 25.320312 9.875 25.777344 11.179688 25.828125 C 14.402344 25.949219 17.640625 25.945312 20.863281 25.828125 C 23.78125 25.722656 25.894531 23.566406 25.984375 20.648438 C 26.082031 17.550781 26.082031 14.445312 25.984375 11.347656 C 25.941406 10.003906 25.46875 8.820312 24.6875 7.921875 L 31.996094 15.234375 C 32.027344 18.914062 31.84375 22.597656 31.453125 26.277344 Z M 31.453125 26.277344 "/>
<path style=" stroke:none;fill-rule:nonzero;fill:url(#linear4);" d="M 19.777344 12.535156 C 18.839844 11.515625 17.496094 10.875 16 10.875 C 13.167969 10.875 10.875 13.167969 10.875 16 C 10.875 17.496094 11.515625 18.839844 12.535156 19.777344 L 24.394531 31.632812 C 25.019531 31.578125 25.648438 31.519531 26.277344 31.453125 C 29.003906 31.160156 31.160156 29.003906 31.453125 26.277344 C 31.519531 25.648438 31.578125 25.019531 31.632812 24.394531 Z M 19.777344 12.535156 "/>
<path style=" stroke:none;fill-rule:nonzero;fill:url(#linear5);" d="M 31.9375 19.445312 L 22.394531 9.902344 C 22.171875 9.609375 21.820312 9.421875 21.425781 9.421875 C 20.75 9.421875 20.207031 9.96875 20.207031 10.640625 C 20.207031 11.035156 20.394531 11.386719 20.6875 11.609375 L 31.765625 22.691406 C 31.84375 21.609375 31.898438 20.527344 31.9375 19.445312 Z M 31.9375 19.445312 "/>
<path style=" stroke:none;fill-rule:nonzero;fill:url(#linear6);" d="M 5.941406 12.117188 C 6.011719 11.648438 6.0625 11.175781 6.144531 10.707031 C 6.625 8.0625 8.5 6.261719 11.179688 6.167969 C 14.40625 6.058594 17.640625 6.050781 20.863281 6.167969 C 23.78125 6.273438 25.894531 8.429688 25.984375 11.347656 C 26.082031 14.445312 26.082031 17.550781 25.984375 20.648438 C 25.894531 23.566406 23.78125 25.722656 20.867188 25.828125 C 17.640625 25.945312 14.402344 25.949219 11.179688 25.828125 C 8.261719 25.71875 6.246094 23.554688 6.050781 20.632812 C 6.035156 20.378906 5.980469 20.128906 5.941406 19.878906 C 5.941406 17.292969 5.941406 14.703125 5.941406 12.117188 Z M 16.003906 24.101562 C 17.480469 24.101562 18.957031 24.144531 20.429688 24.089844 C 22.742188 24.003906 24.164062 22.625 24.21875 20.316406 C 24.285156 17.4375 24.285156 14.558594 24.21875 11.679688 C 24.164062 9.371094 22.742188 7.960938 20.429688 7.910156 C 17.496094 7.847656 14.5625 7.847656 11.628906 7.910156 C 9.335938 7.960938 7.910156 9.34375 7.847656 11.625 C 7.769531 14.539062 7.769531 17.457031 7.847656 20.371094 C 7.910156 22.652344 9.335938 24.003906 11.628906 24.089844 C 13.085938 24.144531 14.546875 24.101562 16.003906 24.101562 Z M 16.003906 24.101562 "/>
<path style=" stroke:none;fill-rule:nonzero;fill:rgb(100%,100%,100%);fill-opacity:1;" d="M 5.941406 12.117188 C 6.011719 11.648438 6.0625 11.175781 6.144531 10.707031 C 6.625 8.0625 8.5 6.261719 11.179688 6.167969 C 14.40625 6.058594 17.640625 6.050781 20.863281 6.167969 C 23.78125 6.273438 25.894531 8.429688 25.984375 11.347656 C 26.082031 14.445312 26.082031 17.550781 25.984375 20.648438 C 25.894531 23.566406 23.78125 25.722656 20.867188 25.828125 C 17.640625 25.945312 14.402344 25.949219 11.179688 25.828125 C 8.261719 25.71875 6.246094 23.554688 6.050781 20.632812 C 6.035156 20.378906 5.980469 20.128906 5.941406 19.878906 C 5.941406 17.292969 5.941406 14.703125 5.941406 12.117188 Z M 16.003906 24.101562 C 17.480469 24.101562 18.957031 24.144531 20.429688 24.089844 C 22.742188 24.003906 24.164062 22.625 24.21875 20.316406 C 24.285156 17.4375 24.285156 14.558594 24.21875 11.679688 C 24.164062 9.371094 22.742188 7.960938 20.429688 7.910156 C 17.496094 7.847656 14.5625 7.847656 11.628906 7.910156 C 9.335938 7.960938 7.910156 9.34375 7.847656 11.625 C 7.769531 14.539062 7.769531 17.457031 7.847656 20.371094 C 7.910156 22.652344 9.335938 24.003906 11.628906 24.089844 C 13.085938 24.144531 14.546875 24.101562 16.003906 24.101562 Z M 16.003906 24.101562 "/>
<path style=" stroke:none;fill-rule:nonzero;fill:rgb(100%,100%,100%);fill-opacity:1;" d="M 16 10.875 C 13.167969 10.875 10.875 13.167969 10.875 16 C 10.875 18.832031 13.167969 21.125 16 21.125 C 18.832031 21.125 21.125 18.832031 21.125 16 C 21.125 13.167969 18.832031 10.875 16 10.875 Z M 16 19.359375 C 14.144531 19.359375 12.640625 17.855469 12.640625 16 C 12.640625 14.144531 14.144531 12.640625 16 12.640625 C 17.855469 12.640625 19.359375 14.144531 19.359375 16 C 19.359375 17.855469 17.855469 19.359375 16 19.359375 Z M 16 19.359375 "/>
<path style=" stroke:none;fill-rule:nonzero;fill:rgb(100%,100%,100%);fill-opacity:1;" d="M 22.644531 10.640625 C 22.644531 11.3125 22.097656 11.859375 21.425781 11.859375 C 20.75 11.859375 20.207031 11.3125 20.207031 10.640625 C 20.207031 9.96875 20.75 9.421875 21.425781 9.421875 C 22.097656 9.421875 22.644531 9.96875 22.644531 10.640625 Z M 22.644531 10.640625 "/>
</g>
</svg>
